#!OML:ASF I:\golf\golf\golf 2\Subject 1\2002-09-07\Subject1.ASF
:FULLY-SPECIFIED
:DEGREES
426
root -10.4318 18.0302 4.4986 -152.58 75.0786 -170.881
lowerback 3.0924 1.59734 -0.256713
upperback 4.5552 2.23797 4.67633
thorax 2.76738 1.11625 4.97262
lowerneck -13.2098 5.88354 4.78743
upperneck 33.9765 13.1365 -10.527
head 15.1812 5.43811 -2.81619
rclavicle -1.27222e-014 -2.3059e-014
rhumerus -15.5578 23.6948 -98.2387
rradius 48.5266
rwrist -51.0303
rhand -33.4037 -9.4655
rfingers 7.12502
rthumb -6.60396 -39.3425
lclavicle -1.27222e-014 -2.3059e-014
lhumerus -8.50805 -45.9358 105.54
lradius 42.7686
lwrist 49.0405
lhand -6.57279 64.0489
lfingers 7.12502
lthumb -160.718 86.887
rfemur -25.1856 -9.4732 16.7243
rtibia 26.3132
rfoot -10.7922 -17.7935
rtoes -2.94007
lfemur -32.9162 0.512068 -10.8827
ltibia 21.3152
lfoot -6.49594 -16.8426
ltoes -8.10683
427
root -10.4303 18.0299 4.49973 -152.627 75.1165 -170.918
lowerback 3.08104 1.64342 -0.281082
upperback 4.55683 2.29761 4.6249
thorax 2.77111 1.14524 4.93209
lowerneck -13.2772 5.86223 4.91276
upperneck 34.0471 13.0902 -10.5428
head 15.2368 5.42837 -2.85262
rclavicle -2.78299e-014 -9.70069e-014
rhumerus -15.536 23.5122 -98.2787
rradius 48.5288
rwrist -51.0377
rhand -33.379 -9.47198
rfingers 7.12502
rthumb -6.58011 -39.3497
lclavicle -2.78299e-014 -9.70069e-014
lhumerus -8.52895 -46.0829 105.553
lradius 42.7595
lwrist 49.114
lhand -6.6507 64.066
lfingers 7.12502
lthumb -160.793 86.8624
rfemur -25.2002 -9.52317 16.7111
rtibia 26.3583
rfoot -10.8011 -17.7022
rtoes -3.01312
lfemur -32.8928 0.594677 -10.9204
ltibia 21.3154
lfoot -6.33017 -16.9479
ltoes -7.11897
428
root -10.4294 18.0308 4.50001 -152.755 75.1491 -171.035
lowerback 3.08659 1.67443 -0.347117
upperback 4.5489 2.33701 4.57909
thorax 2.75554 1.163 4.9204
lowerneck -13.3144 5.86534 5.15124
upperneck 34.087 13.0813 -10.6573
head 15.2944 5.43905 -2.94382
rclavicle 1.82882e-014 1.98785e-014
rhumerus -15.534 23.3842 -98.3262
rradius 48.5079
rwrist -50.9949
rhand -33.3703 -9.54311
rfingers 7.12502
rthumb -6.57166 -39.4211
lclavicle 1.82882e-014 1.98785e-014
lhumerus -8.53892 -46.1682 105.553
lradius 42.7354
lwrist 49.1377
lhand -6.65312 64.0603
lfingers 7.12502
lthumb -160.796 86.8679
rfemur -25.212 -9.53252 16.6641
rtibia 26.4211
rfoot -10.9014 -17.6421
rtoes -2.77751
lfemur -32.8635 0.619392 -10.9647
ltibia 21.3048
lfoot -6.23212 -16.9714
ltoes -6.62775
429
root -10.4289 18.0306 4.50013 -153.103 75.1809 -171.398
lowerback 3.08391 1.65354 -0.508381
upperback 4.53277 2.3057 4.55876
thorax 2.73805 1.14214 4.99047
lowerneck -13.267 5.94288 5.25789
upperneck 34.0209 13.1982 -10.7649
head 15.2858 5.49184 -2.98583
rclavicle -2.38542e-015 -3.18055e-015
rhumerus -15.5063 23.4196 -98.3602
rradius 48.4171
rwrist -50.9485
rhand -33.3398 -9.50886
rfingers 7.12502
rthumb -6.54221 -39.3878
lclavicle -2.38542e-015 -3.18055e-015
lhumerus -8.51017 -46.1153 105.53
lradius 42.6956
lwrist 49.1464
lhand -6.58358 63.9505
lfingers 7.12502
lthumb -160.729 86.9844
rfemur -25.2403 -9.53291 16.5496
rtibia 26.4827
rfoot -10.9568 -17.6448
rtoes -2.67962
lfemur -32.8635 0.618801 -11.0889
ltibia 21.3046
lfoot -6.31406 -16.9611
ltoes -7.1659
430
root -10.4272 18.0271 4.50036 -153.171 75.203 -171.478
lowerback 3.05233 1.64732 -0.60965
upperback 4.5247 2.29523 4.58039
thorax 2.74407 1.13329 5.07176
lowerneck -13.1887 5.99716 5.19515
upperneck 33.9304 13.2976 -10.8027
head 15.2353 5.52689 -2.97234
rclavicle -7.31528e-014 1.03368e-014
rhumerus -15.4692 23.4629 -98.3242
rradius 48.3304
rwrist -50.8944
rhand -33.1779 -9.45387
rfingers 7.12502
rthumb -6.38596 -39.3376
lclavicle -7.31528e-014 1.03368e-014
lhumerus -8.47666 -46.0656 105.565
lradius 42.6377
lwrist 49.1511
lhand -6.51221 63.8267
lfingers 7.12502
lthumb -160.66 87.1151
rfemur -25.2659 -9.52527 16.5198
rtibia 26.5282
rfoot -10.9882 -17.6529
rtoes -2.61276
lfemur -32.8607 0.577741 -11.1015
ltibia 21.3077
lfoot -6.4404 -16.8788
ltoes -7.85352
431
root -10.4253 18.0259 4.49925 -153.023 75.2213 -171.275
lowerback 3.0581 1.67307 -0.592486
upperback 4.54022 2.33027 4.58494
thorax 2.7542 1.15134 5.06663
lowerneck -13.1648 5.96908 5.17548
upperneck 33.9457 13.2677 -10.8002
head 15.2315 5.51427 -2.97448
rclavicle 1.35174e-014 8.74653e-015
rhumerus -15.4333 23.4345 -98.2838
rradius 48.2968
rwrist -50.8868
rhand -33.1501 -9.55617
rfingers 7.12502
rthumb -6.35912 -39.4407
lclavicle 1.35174e-014 8.74653e-015
lhumerus -8.4463 -46.1049 105.579
lradius 42.5791
lwrist 49.0401
lhand -6.51151 63.8225
lfingers 7.12502
lthumb -160.659 87.1193
rfemur -25.2152 -9.43631 16.5429
rtibia 26.5518
rfoot -11.0583 -17.6856
rtoes -2.42999
lfemur -32.7962 0.569562 -11.0431
ltibia 21.3242
lfoot -6.54711 -16.8045
ltoes -8.35891
432
root -10.4235 18.0262 4.5002 -153.014 75.2452 -171.193
lowerback 3.09564 1.67902 -0.616818
upperback 4.55374 2.33863 4.57399
thorax 2.74594 1.15504 5.06784
lowerneck -13.1692 5.96138 5.20965
upperneck 33.978 13.2599 -10.8107
head 15.251 5.51381 -2.9869
rclavicle -5.48646e-014 -7.95139e-015
rhumerus -15.4151 23.4642 -98.278
rradius 48.2666
rwrist -50.9241
rhand -33.2029 -9.66594
rfingers 7.12502
rthumb -6.4101 -39.5489
lclavicle -5.48646e-014 -7.95139e-015
lhumerus -8.45293 -46.1104 105.562
lradius 42.5524
lwrist 48.9204
lhand -6.64541 63.8588
lfingers 7.12502
lthumb -160.788 87.0702
rfemur -25.1317 -9.31044 16.5232
rtibia 26.547
rfoot -11.1093 -17.7563
rtoes -2.40303
lfemur -32.7345 0.690504 -11.0669
ltibia 21.3659
lfoot -6.5287 -16.9234
ltoes -8.01978
433
root -10.4215 18.0257 4.50182 -153.045 75.2203 -171.182
lowerback 3.09822 1.65182 -0.641208
upperback 4.56057 2.30192 4.56782
thorax 2.75436 1.13577 5.07585
lowerneck -13.1222 6.01244 5.2671
upperneck 33.9022 13.3185 -10.8522
head 15.2196 5.54295 -3.00332
rclavicle 5.48646e-014 4.29375e-014
rhumerus -15.424 23.5183 -98.2948
rradius 48.2726
rwrist -50.9958
rhand -33.1824 -9.64494
rfingers 7.12502
rthumb -6.39032 -39.5285
lclavicle 5.48646e-014 4.29375e-014
lhumerus -8.47533 -46.0792 105.525
lradius 42.5779
lwrist 48.9303
lhand -6.81025 63.8905
lfingers 7.12502
lthumb -160.947 87.0227
rfemur -25.0553 -9.27191 16.5229
rtibia 26.5063
rfoot -11.0987 -17.8054
rtoes -2.38184
lfemur -32.7324 0.763194 -11.0781
ltibia 21.423
lfoot -6.45076 -17.0534
ltoes -7.13741
434
root -10.4198 18.0248 4.50116 -153.094 75.1448 -171.196
lowerback 3.09429 1.62605 -0.595601
upperback 4.56869 2.26796 4.5472
thorax 2.77041 1.12011 5.02918
lowerneck -13.1344 6.03339 5.26654
upperneck 33.8904 13.3241 -10.802
head 15.2118 5.54941 -2.98049
rclavicle -5.48646e-014 1.98785e-014
rhumerus -15.4444 23.4728 -98.3241
rradius 48.3313
rwrist -51.0724
rhand -33.1896 -9.57304
rfingers 7.12502
rthumb -6.3973 -39.4564
lclavicle -5.48646e-014 1.98785e-014
lhumerus -8.46986 -46.0792 105.5
lradius 42.5568
lwrist 48.9333
lhand -6.82603 63.8998
lfingers 7.12502
lthumb -160.962 87.012
rfemur -24.9608 -9.30834 16.5422
rtibia 26.439
rfoot -11.0587 -17.816
rtoes -2.08363
lfemur -32.7562 0.792957 -11.0856
ltibia 21.4919
lfoot -6.45512 -17.1502
ltoes -6.90336
435
root -10.4153 18.0251 4.49948 -152.721 75.047 -170.781
lowerback 3.06087 1.59479 -0.457685
upperback 4.56232 2.22849 4.58427
thorax 2.78958 1.10454 4.99143
lowerneck -13.2007 6.03997 5.16654
upperneck 33.995 13.353 -10.71
head 15.2637 5.55593 -2.91898
rclavicle -1.35174e-014 -5.08889e-014
rhumerus -15.5011 23.4654 -98.3423
rradius 48.3586
rwrist -51.1274
rhand -33.2816 -9.47685
rfingers 7.12502
rthumb -6.48606 -39.3575
lclavicle -1.35174e-014 -5.08889e-014
lhumerus -8.48604 -46.0679 105.527
lradius 42.522
lwrist 48.9814
lhand -6.79965 63.8565
lfingers 7.12502
lthumb -160.936 87.0577
rfemur -24.8568 -9.33499 16.6813
rtibia 26.3616
rfoot -11.1195 -17.7981
rtoes -1.60392
lfemur -32.756 0.866813 -10.9813
ltibia 21.5621
lfoot -6.50341 -17.2887
ltoes -7.05193
436
root -10.4081 18.0263 4.49589 -152.236 74.9665 -170.25
lowerback 2.99029 1.5791 -0.26422
upperback 4.55082 2.20893 4.59629
thorax 2.8251 1.10043 4.89677
lowerneck -13.201 6.05371 5.1898
upperneck 34.0664 13.3819 -10.6898
head 15.3015 5.57351 -2.91049
rclavicle -1.51076e-014 1.51076e-014
rhumerus -15.5538 23.4403 -98.4029
rradius 48.3234
rwrist -51.1483
rhand -33.2507 -9.27857
rfingers 7.12502
rthumb -6.45629 -39.1602
lclavicle -1.51076e-014 1.51076e-014
lhumerus -8.58578 -46.1544 105.531
lradius 42.5799
lwrist 49.1068
lhand -6.89003 63.9528
lfingers 7.12502
lthumb -161.023 86.953
rfemur -24.7461 -9.42858 16.856
rtibia 26.2789
rfoot -11.1305 -17.7269
rtoes -1.64757
lfemur -32.7207 0.848437 -10.8121
ltibia 21.6273
lfoot -6.5924 -17.3034
ltoes -7.17312
437
root -10.4031 18.0266 4.49297 -152.211 74.993 -170.192
lowerback 2.94619 1.61551 -0.221601
upperback 4.54789 2.25568 4.53864
thorax 2.84619 1.12484 4.81309
lowerneck -13.1983 6.04759 5.28097
upperneck 34.0864 13.347 -10.6772
head 15.3119 5.57172 -2.92815
rclavicle 3.73715e-014 -6.36111e-015
rhumerus -15.5609 23.3 -98.4578
rradius 48.3119
rwrist -51.125
rhand -33.1497 -9.30643
rfingers 7.12502
rthumb -6.35871 -39.191
lclavicle 3.73715e-014 -6.36111e-015
lhumerus -8.65568 -46.2828 105.542
lradius 42.5874
lwrist 49.1757
lhand -6.80224 64.0414
lfingers 7.12502
lthumb -160.939 86.8726
rfemur -24.6563 -9.49679 16.8643
rtibia 26.19
rfoot -10.9706 -17.6778
rtoes -2.35264
lfemur -32.6917 0.780532 -10.7867
ltibia 21.7031
lfoot -6.67644 -17.2031
ltoes -7.13478
438
root -10.4005 18.0268 4.49088 -152.151 75.0474 -170.128
lowerback 2.90185 1.63784 -0.268389
upperback 4.54013 2.28346 4.54408
thorax 2.85886 1.13676 4.84643
lowerneck -13.1435 6.06135 5.30685
upperneck 34.0128 13.3785 -10.7572
head 15.2781 5.58319 -2.96045
rclavicle -1.59028e-014 -1.27222e-014
rhumerus -15.5922 23.2889 -98.4331
rradius 48.3638
rwrist -51.1248
rhand -33.1705 -9.57011
rfingers 7.12502
rthumb -6.37881 -39.4541
lclavicle -1.59028e-014 -1.27222e-014
lhumerus -8.63294 -46.3103 105.591
lradius 42.5293
lwrist 49.2385
lhand -6.73053 63.9696
lfingers 7.12502
lthumb -160.87 86.9512
rfemur -24.6165 -9.46285 16.8508
rtibia 26.1155
rfoot -10.8532 -17.6707
rtoes -2.76228
lfemur -32.6993 0.727775 -10.7609
ltibia 21.7753
lfoot -6.74512 -17.0723
ltoes -7.15934
439
root -10.398 18.027 4.48879 -151.747 75.0533 -169.751
lowerback 2.80847 1.66518 -0.198987
upperback 4.5148 2.31848 4.56557
thorax 2.8837 1.15581 4.83204
lowerneck -13.0798 6.05198 5.29304
upperneck 33.9484 13.3807 -10.8134
head 15.2374 5.58112 -2.98164
rclavicle 3.18055e-015 -7.39479e-014
rhumerus -15.6372 23.2629 -98.4102
rradius 48.3754
rwrist -51.1086
rhand -33.1638 -9.64454
rfingers 7.12502
rthumb -6.37238 -39.5287
lclavicle 3.18055e-015 -7.39479e-014
lhumerus -8.66292 -46.441 105.625
lradius 42.5408
lwrist 49.3235
lhand -6.95702 64.0044
lfingers 7.12502
lthumb -161.088 86.895
rfemur -24.6325 -9.40623 16.9447
rtibia 26.0799
rfoot -10.834 -17.6922
rtoes -2.92632
lfemur -32.738 0.732467 -10.6466
ltibia 21.8074
lfoot -6.81138 -16.9659
ltoes -7.54691
